<!--?xml version="1.0" standalone="no"?-->
              <svg id="sw-js-blob-svg" viewBox="0 0 100 100" xmlns="http://www.w3.org/2000/svg" version="1.1">
                    <defs> 
                        <linearGradient id="sw-gradient" x1="0" x2="1" y1="1" y2="0">
                            <stop id="stop1" stop-color="rgba(247, 238, 211, 1)" offset="0%"></stop>
                            <stop id="stop2" stop-color="rgba(251, 168, 31, 1)" offset="100%"></stop>
                        </linearGradient>
                    </defs>
                <path fill="none" d="M22.9,-27.8C29.2,-22,33.5,-14.3,36.1,-5.5C38.7,3.4,39.7,13.4,35.8,21.3C32,29.3,23.5,35.2,14.3,37.8C5.2,40.4,-4.5,39.8,-13.1,36.5C-21.7,33.2,-29.1,27.1,-34.7,19.2C-40.2,11.3,-43.9,1.4,-41.9,-6.9C-39.8,-15.2,-32,-22,-24.1,-27.5C-16.2,-32.9,-8.1,-37,0.1,-37.2C8.3,-37.3,16.6,-33.5,22.9,-27.8Z" width="100%" height="100%" transform="translate(50 50)" stroke-width="1" style="transition: 0.3s;" stroke="rgba(247, 238, 211, 1)"></path>
              </svg>